Coordinates
version=1
nRows=30
nColumns=38
inDegrees=no

Units are S.I. units (second, meters, Newtons, ...)
If the header above contains a line with 'inDegrees', this indicates whether rotational values are in degrees (yes) or radians (no).

endheader
time	pelvis_tilt	pelvis_list	pelvis_rotation	pelvis_tx	pelvis_ty	pelvis_tz	hip_flexion_r	hip_adduction_r	hip_rotation_r	knee_angle_r	ankle_angle_r	subtalar_angle_r	mtp_angle_r	hip_flexion_l	hip_adduction_l	hip_rotation_l	knee_angle_l	ankle_angle_l	subtalar_angle_l	mtp_angle_l	lumbar_extension	lumbar_bending	lumbar_rotation	arm_flex_r	arm_add_r	arm_rot_r	elbow_flex_r	pro_sup_r	wrist_flex_r	wrist_dev_r	arm_flex_l	arm_add_l	arm_rot_l	elbow_flex_l	pro_sup_l	wrist_flex_l	wrist_dev_l
1.27	-0.0817791	1.2508	-1.44902	0.606071	0.83144	0.942384	-0.402434	0.110675	-0.162794	0.205555	-0.138686	0	0	0.16596	-0.104408	-0.0637621	0.702469	-0.127082	0	0	-0.342104	0.0959906	0.26965	-0.119222	-0.755431	0.045051	1.52242	0.518829	0	0	0.552238	-0.500412	0.813596	1.00177	0.632147	0	0
1.28	-0.0900002	1.25885	-1.43816	0.606632	0.821893	0.940614	-0.405344	0.113863	-0.163036	0.205665	-0.130216	0	0	0.163589	-0.101842	-0.0675252	0.622301	-0.128333	0	0	-0.333837	0.0981333	0.265925	-0.117133	-0.753477	0.0447326	1.52276	0.522717	0	0	0.552726	-0.499796	0.812938	0.998575	0.63267	0	0
1.29	-0.10014	1.26793	-1.42489	0.607355	0.812308	0.938627	-0.406846	0.1174	-0.162748	0.206239	-0.121866	0	0	0.159808	-0.0990135	-0.0675115	0.537704	-0.133688	0	0	-0.324124	0.100733	0.261478	-0.11448	-0.751791	0.0454212	1.52223	0.526009	0	0	0.55297	-0.499367	0.812296	0.995731	0.63393	0	0
1.3	-0.113409	1.27792	-1.40793	0.608175	0.802665	0.936465	-0.406397	0.121467	-0.163054	0.208747	-0.11268	0	0	0.15482	-0.0963869	-0.062781	0.450741	-0.143527	0	0	-0.312817	0.103855	0.255975	-0.110385	-0.749947	0.048169	1.52003	0.529491	0	0	0.552531	-0.499504	0.811195	0.993475	0.635911	0	0
1.31	-0.131183	1.28828	-1.38646	0.609004	0.792951	0.934236	-0.405014	0.126387	-0.162209	0.211498	-0.105023	0	0	0.15063	-0.0947645	-0.0584888	0.368694	-0.152775	0	0	-0.300653	0.107779	0.250035	-0.105036	-0.74789	0.0525446	1.51644	0.531809	0	0	0.551227	-0.499963	0.808977	0.991579	0.637631	0	0
1.32	-0.151413	1.29854	-1.3625	0.609886	0.783172	0.932077	-0.402485	0.131075	-0.161921	0.216578	-0.0982393	0	0	0.146284	-0.0933237	-0.0535226	0.291015	-0.162947	0	0	-0.288175	0.11218	0.243837	-0.0992787	-0.74586	0.0578414	1.51219	0.534588	0	0	0.548596	-0.499859	0.804378	0.989149	0.638657	0	0
1.33	-0.173693	1.3083	-1.33691	0.610755	0.773246	0.929989	-0.399204	0.1354	-0.162147	0.22444	-0.0918089	0	0	0.140546	-0.0923398	-0.0467279	0.217455	-0.175363	0	0	-0.275842	0.116629	0.237843	-0.093718	-0.743322	0.0630033	1.50771	0.537998	0	0	0.545371	-0.499818	0.799067	0.987068	0.64031	0	0
1.34	-0.197841	1.31677	-1.31036	0.611619	0.763103	0.927969	-0.396192	0.139045	-0.162592	0.234916	-0.0853048	0	0	0.133237	-0.0920152	-0.0392353	0.150378	-0.190345	0	0	-0.264387	0.121245	0.232808	-0.0892598	-0.74069	0.0672634	1.5038	0.541423	0	0	0.542031	-0.499847	0.79408	0.985455	0.643182	0	0
1.35	-0.222291	1.32315	-1.28449	0.61254	0.752768	0.926098	-0.394699	0.141901	-0.163234	0.247015	-0.0802768	0	0	0.125469	-0.0930391	-0.0323854	0.0983878	-0.205624	0	0	-0.254827	0.126117	0.229276	-0.0868543	-0.738208	0.069403	1.50125	0.544448	0	0	0.539112	-0.499303	0.789814	0.983829	0.647706	0	0
1.36	-0.242716	1.32666	-1.26363	0.613437	0.74231	0.924514	-0.396122	0.143722	-0.163546	0.259281	-0.078555	0	0	0.120717	-0.0948185	-0.0319278	0.0762339	-0.213621	0	0	-0.248776	0.130325	0.227675	-0.0865675	-0.736072	0.0691924	1.50034	0.546756	0	0	0.53787	-0.498801	0.787958	0.982612	0.651665	0	0
1.37	-0.254464	1.32708	-1.25232	0.614176	0.731745	0.923376	-0.400312	0.143813	-0.164638	0.273392	-0.0783517	0	0	0.118632	-0.0956947	-0.0378714	0.0851521	-0.217725	0	0	-0.246879	0.132265	0.227354	-0.0867044	-0.733263	0.0682078	1.49936	0.549531	0	0	0.537201	-0.499388	0.785864	0.982942	0.653728	0	0
1.38	-0.256106	1.32447	-1.25191	0.61477	0.721035	0.92267	-0.407632	0.142128	-0.165532	0.28883	-0.0790615	0	0	0.11717	-0.0952502	-0.0491873	0.119912	-0.214017	0	0	-0.249088	0.132041	0.228048	-0.087056	-0.729641	0.0666425	1.49853	0.552359	0	0	0.537676	-0.501196	0.785369	0.984508	0.655237	0	0
1.39	-0.250327	1.31937	-1.25981	0.615319	0.709999	0.922268	-0.41782	0.139055	-0.165379	0.30513	-0.0813889	0	0	0.111582	-0.0936244	-0.0615796	0.162324	-0.202211	0	0	-0.253763	0.130596	0.23019	-0.0887199	-0.726584	0.064901	1.49826	0.554697	0	0	0.538605	-0.503205	0.786124	0.986278	0.655217	0	0
1.4	-0.239296	1.31242	-1.27361	0.615936	0.69859	0.922084	-0.430046	0.134665	-0.164032	0.322747	-0.085704	0	0	0.0993633	-0.0903141	-0.0724606	0.195721	-0.185388	0	0	-0.259951	0.128111	0.233231	-0.0914997	-0.724292	0.0633872	1.49838	0.555664	0	0	0.539849	-0.505783	0.788695	0.988747	0.654767	0	0
1.41	-0.227638	1.30696	-1.28775	0.616686	0.686992	0.921917	-0.439805	0.129499	-0.160065	0.341875	-0.0911165	0	0	0.084341	-0.0848054	-0.0787206	0.208616	-0.178173	0	0	-0.263988	0.124936	0.235756	-0.0946386	-0.721876	0.0627138	1.49772	0.555882	0	0	0.540489	-0.508167	0.791468	0.990754	0.654645	0	0
1.42	-0.217676	1.3034	-1.29935	0.617425	0.675449	0.921769	-0.444895	0.124562	-0.154658	0.365552	-0.0986075	0	0	0.0702832	-0.0792231	-0.0821316	0.206091	-0.187115	0	0	-0.266179	0.121319	0.237534	-0.0980716	-0.718628	0.0619453	1.49643	0.556416	0	0	0.541658	-0.510756	0.795488	0.992604	0.654968	0	0
1.43	-0.211354	1.30381	-1.30649	0.618159	0.663954	0.921565	-0.441801	0.119324	-0.148712	0.396025	-0.107819	0	0	0.0599906	-0.0745697	-0.0810007	0.195392	-0.214438	0	0	-0.26407	0.117393	0.238143	-0.10159	-0.713644	0.060994	1.4938	0.558305	0	0	0.54224	-0.513044	0.79915	0.993318	0.656157	0	0
1.44	-0.206108	1.30688	-1.31222	0.619096	0.65244	0.921309	-0.43225	0.112773	-0.144249	0.432311	-0.118906	0	0	0.0537272	-0.0705192	-0.0786125	0.188634	-0.244581	0	0	-0.259122	0.113181	0.237913	-0.105305	-0.708569	0.0603424	1.49079	0.561108	0	0	0.540912	-0.515049	0.799906	0.994098	0.656649	0	0
1.45	-0.201346	1.31021	-1.31741	0.620313	0.640878	0.921002	-0.418628	0.104565	-0.143421	0.474885	-0.133636	0	0	0.0508256	-0.0670625	-0.0778329	0.192629	-0.267105	0	0	-0.253687	0.109756	0.237509	-0.109656	-0.704949	0.0598128	1.48892	0.563881	0	0	0.538966	-0.516409	0.800051	0.994715	0.657909	0	0
1.46	-0.195565	1.3122	-1.32327	0.621704	0.629362	0.920824	-0.40314	0.0949976	-0.145409	0.522533	-0.153876	0	0	0.0504726	-0.0646643	-0.0786146	0.209438	-0.279219	0	0	-0.249795	0.107021	0.237001	-0.114475	-0.702307	0.0587967	1.48839	0.565435	0	0	0.537567	-0.517339	0.80085	0.995157	0.659255	0	0
1.47	-0.186128	1.3123	-1.33239	0.623078	0.618008	0.921016	-0.386854	0.0839408	-0.148028	0.574027	-0.181101	0	0	0.0504079	-0.0627776	-0.0799493	0.234594	-0.283741	0	0	-0.248551	0.1038	0.236291	-0.118936	-0.699617	0.0573672	1.48822	0.565864	0	0	0.537171	-0.518236	0.802326	0.99533	0.660075	0	0
1.48	-0.17086	1.31009	-1.34712	0.624351	0.606933	0.921686	-0.370387	0.071007	-0.150271	0.628211	-0.216347	0	0	0.0478547	-0.0601686	-0.0821913	0.261303	-0.285744	0	0	-0.250679	0.0992756	0.235456	-0.121856	-0.697019	0.0566508	1.48752	0.565477	0	0	0.538348	-0.519019	0.80482	0.99488	0.660573	0	0
1.49	-0.151467	1.30521	-1.366	0.625488	0.596094	0.92273	-0.354421	0.0567413	-0.152266	0.684065	-0.258637	0	0	0.0399236	-0.0572253	-0.0853226	0.283663	-0.287167	0	0	-0.256174	0.0938495	0.234821	-0.123543	-0.695173	0.056599	1.48697	0.5643	0	0	0.541799	-0.520139	0.809981	0.99416	0.662415	0	0
1.5	-0.129606	1.29833	-1.38748	0.626521	0.585489	0.924015	-0.338374	0.0413601	-0.154453	0.740748	-0.312885	0	0	0.0270138	-0.0534526	-0.0889743	0.301581	-0.286905	0	0	-0.264374	0.0875992	0.234593	-0.124653	-0.694154	0.0565727	1.48703	0.561848	0	0	0.54704	-0.522255	0.817263	0.994407	0.664175	0	0
1.51	-0.108038	1.29018	-1.40911	0.627489	0.575109	0.925418	-0.321936	0.0259295	-0.155256	0.796872	-0.370782	0	0	0.011517	-0.0490559	-0.0952317	0.317603	-0.283083	0	0	-0.274206	0.0814985	0.234827	-0.12526	-0.694036	0.0565878	1.48791	0.55837	0	0	0.552105	-0.524712	0.82363	0.995503	0.662261	0	0
1.52	-0.0899309	1.28199	-1.42778	0.628496	0.564921	0.926748	-0.303582	0.0113208	-0.155085	0.852612	-0.426115	0	0	-0.00477034	-0.0447602	-0.102342	0.330696	-0.276528	0	0	-0.284187	0.07644	0.235435	-0.125673	-0.695457	0.0567399	1.48983	0.553826	0	0	0.555532	-0.526247	0.826629	0.997399	0.653804	0	0
1.53	-0.0749291	1.27459	-1.44357	0.629588	0.554904	0.927908	-0.282494	-0.00273378	-0.155179	0.908787	-0.468188	0	0	-0.0205707	-0.0405015	-0.109536	0.341207	-0.270363	0	0	-0.293115	0.0725126	0.235909	-0.12572	-0.698042	0.0573382	1.49243	0.550169	0	0	0.559039	-0.52739	0.830333	0.998842	0.647196	0	0
1.54	-0.0651029	1.26816	-1.45452	0.630674	0.545047	0.92891	-0.259219	-0.0149452	-0.154829	0.963043	-0.504003	0	0	-0.0351758	-0.0373405	-0.116697	0.350087	-0.263976	0	0	-0.300799	0.0703168	0.236553	-0.125607	-0.701131	0.0576877	1.49551	0.546546	0	0	0.562872	-0.5284	0.835369	0.999929	0.642532	0	0
1.55	-0.0628628	1.26239	-1.4586	0.631578	0.53531	0.92982	-0.234529	-0.0236223	-0.153617	1.0141	-0.532095	0	0	-0.0488069	-0.0362233	-0.12303	0.358165	-0.256553	0	0	-0.307394	0.0704739	0.23769	-0.12479	-0.70394	0.0580231	1.49834	0.543697	0	0	0.565975	-0.529137	0.839466	1.00057	0.639678	0	0
1.56	-0.0677614	1.25724	-1.45626	0.632302	0.525671	0.930702	-0.208329	-0.0288039	-0.152182	1.06196	-0.558213	0	0	-0.0622353	-0.0376148	-0.128251	0.365131	-0.24737	0	0	-0.313147	0.07271	0.239406	-0.123422	-0.706734	0.0586758	1.50085	0.540743	0	0	0.567661	-0.529829	0.841315	1.00157	0.635493	0	0
